# xmcd
#
# Track frame offsets: 
#        150
#        20685
#        38080
#        66264
#        85246
#        111193
#        136592
#        161445
#
# Disc length: 2411 seconds
#
# Revision: 0
# Processed by: cddbd v1.5.2PL0 Copyright (c) Steve Scherf et al.
# Submitted via: ExactAudioCopy v0.95b4
#
DISCID=5f096908
DTITLE=Stephanie Mills - Sweet Sensation
DYEAR=1980
DGENRE=R&B
TTITLE0=Sweet Sensation
TTITLE1=Try My Love
TTITLE2=I Just Wanna Say
TTITLE3=Wish That You Were Mine
TTITLE4=D-A-N-C-I-N'
TTITLE5=Still Mine
TTITLE6=Never Knew Love Like This Before
TTITLE7=Mixture Of Love
EXTD=
EXTT0=
EXTT1=
EXTT2=
EXTT3=
EXTT4=
EXTT5=
EXTT6=
EXTT7=
PLAYORDER=
